<?xml version="1.0" encoding="UTF-8"?><svg viewBox="0 0 30 30" xmlns="http://www.w3.org/2000/svg"><path d="M15.005 22.936a75.522 75.522 0 0 1 1.813-1.293c3.29-2.295 7.695-5.371 7.695-8.627 0-1.986-.885-3.414-2.112-4.23a4.749 4.749 0 0 0-2.078-.753 4.705 4.705 0 0 0-2.185.252c-1.336.494-2.47 1.645-2.901 3.511a.235.235 0 0 1-.285.176.235.235 0 0 1-.18-.18c-.43-1.862-1.564-3.013-2.897-3.507a4.72 4.72 0 0 0-2.188-.252 4.72 4.72 0 0 0-2.075.753c-1.23.816-2.112 2.244-2.112 4.23 0 3.256 4.403 6.332 7.691 8.627.664.46 1.28.895 1.814 1.293z" fill="#FD323D" fill-rule="evenodd" stroke="#FD3641"/></svg>
