<?xml version="1.0" encoding="UTF-8"?><svg viewBox="0 0 30 30" xmlns="http://www.w3.org/2000/svg"><path d="M24.5 8.5h3v1h-3v3h-1v-3h-3v-1h3v-3h1v3zm-7.548.33c.159-.059.317-.11.478-.152a.5.5 0 1 1 .258.966c-.13.034-.259.076-.388.123-1.332.494-2.314 1.629-2.697 3.29a.75.75 0 0 1-1.458-.005c-.383-1.657-1.365-2.791-2.698-3.285a4.378 4.378 0 0 0-2.035-.236 4.468 4.468 0 0 0-1.942.707c-1.236.817-1.97 2.202-1.97 3.974 0 2.098 1.911 4.287 5.613 7.012.61.449 1.1.796 2.162 1.538.889.621 1.263.884 1.6 1.13.347-.255.737-.529 1.599-1.13 4.9-3.421 6.997-5.31 7.635-7.577a.5.5 0 0 1 .962.27c-.729 2.596-2.894 4.545-8.025 8.127-1.098.766-1.422.996-1.872 1.333a.5.5 0 0 1-.6 0c-.447-.335-.732-.537-1.871-1.333a97.655 97.655 0 0 1-2.183-1.553c-3.958-2.913-6.02-5.275-6.02-7.817 0-2.105.9-3.804 2.418-4.808a5.467 5.467 0 0 1 2.377-.866 5.377 5.377 0 0 1 2.5.292c1.413.523 2.507 1.626 3.08 3.175.572-1.55 1.666-2.653 3.077-3.175z" fill="#FD323D"/></svg>
